<?xml version="1.0" encoding="UTF-8"?>
<svg width="680px" height="241px" viewBox="0 0 680 241" version="1.1" xmlns="http://www.w3.org/2000/svg" xmlns:xlink="http://www.w3.org/1999/xlink">
    <!-- Generator: Sketch 46.2 (44496) - http://www.bohemiancoding.com/sketch -->
    <title>LeAppLogoProposal</title>
    <desc>Created with Sketch.</desc>
    <defs>
        <filter x="-0.9%" y="-2.6%" width="102.6%" height="107.0%" filterUnits="objectBoundingBox" id="filter-1">
            <feOffset dx="2" dy="2" in="SourceAlpha" result="shadowOffsetOuter1"></feOffset>
            <feGaussianBlur stdDeviation="2" in="shadowOffsetOuter1" result="shadowBlurOuter1"></feGaussianBlur>
            <feColorMatrix values="0 0 0 0 0   0 0 0 0 0   0 0 0 0 0  0 0 0 0.45459692 0" type="matrix" in="shadowBlurOuter1" result="shadowMatrixOuter1"></feColorMatrix>
            <feMerge>
                <feMergeNode in="shadowMatrixOuter1"></feMergeNode>
                <feMergeNode in="SourceGraphic"></feMergeNode>
            </feMerge>
        </filter>
        <path d="M1,88 L44.7515013,88 L44.7515013,194.722757 L113.034749,194.722757 L113.034749,229.588744 L1,229.588744 L1,88 Z M127.476931,88 L244.727091,88 L244.727091,118.230066 L171.325014,118.230066 L171.325014,140.733598 L239.415099,140.733598 L239.415099,169.61152 L171.325014,169.61152 L171.325014,197.523626 L246.851888,197.523626 L246.851888,229.588744 L127.476931,229.588744 L127.476931,88 Z M352.177432,206.215977 L302.341284,206.215977 L295.483985,229.588744 L250.766667,229.588744 L303.983173,88 L351.694523,88 L404.911029,229.588744 L359.131313,229.588744 L352.177432,206.215977 Z M343.002172,175.599584 L327.35594,124.701039 L311.806289,175.599584 L343.002172,175.599584 Z M413.365147,88 L486.091152,88 C501.930627,88 513.793958,91.7666479 521.681501,99.3000566 C529.569045,106.833465 533.512757,117.553925 533.512757,131.461756 C533.512757,145.755916 529.214915,156.927086 520.619103,164.975599 C512.02329,173.024113 498.90441,177.04831 481.262068,177.04831 L457.309811,177.04831 L457.309811,229.588744 L413.365147,229.588744 L413.365147,88 Z M457.309811,148.36355 L468.030378,148.36355 C476.46522,148.36355 482.388837,146.898743 485.801407,143.969084 C489.213977,141.039425 490.920236,137.288874 490.920236,132.717318 C490.920236,128.274539 489.439332,124.507891 486.477479,121.417261 C483.515626,118.326632 477.946138,116.781341 469.768848,116.781341 L457.309811,116.781341 L457.309811,148.36355 Z M550.852389,88 L623.578395,88 C639.41787,88 651.281201,91.7666479 659.168744,99.3000566 C667.056287,106.833465 671,117.553925 671,131.461756 C671,145.755916 666.702158,156.927086 658.106346,164.975599 C649.510533,173.024113 636.391653,177.04831 618.749311,177.04831 L594.797054,177.04831 L594.797054,229.588744 L550.852389,229.588744 L550.852389,88 Z M594.797054,148.36355 L605.517621,148.36355 C613.952463,148.36355 619.87608,146.898743 623.28865,143.969084 C626.70122,141.039425 628.407479,137.288874 628.407479,132.717318 C628.407479,128.274539 626.926575,124.507891 623.964722,121.417261 C621.002869,118.326632 615.433381,116.781341 607.256091,116.781341 L594.797054,116.781341 L594.797054,148.36355 Z" id="path-2"></path>
        <filter x="-1.0%" y="-3.2%" width="102.5%" height="112.0%" filterUnits="objectBoundingBox" id="filter-3">
            <feMorphology radius="0.5" operator="dilate" in="SourceAlpha" result="shadowSpreadOuter1"></feMorphology>
            <feOffset dx="2" dy="4" in="shadowSpreadOuter1" result="shadowOffsetOuter1"></feOffset>
            <feGaussianBlur stdDeviation="2" in="shadowOffsetOuter1" result="shadowBlurOuter1"></feGaussianBlur>
            <feComposite in="shadowBlurOuter1" in2="SourceAlpha" operator="out" result="shadowBlurOuter1"></feComposite>
            <feColorMatrix values="0 0 0 0 0   0 0 0 0 0   0 0 0 0 0  0 0 0 0.156702899 0" type="matrix" in="shadowBlurOuter1"></feColorMatrix>
        </filter>
    </defs>
    <g id="Page-1" stroke="none" stroke-width="1" fill="none" fill-rule="evenodd">
        <g id="LeAppLogoProposal" transform="translate(2.000000, 3.000000)">
            <g id="LeAppLogo" filter="url(#filter-1)" stroke="#000000">
                <path d="M551.402439,82 L644,82 C578.53695,27.3333333 495.870284,0 396,0 C456.174899,0 497.298047,27.3333333 551.402439,82 Z" id="Path" fill="#820000"></path>
                <path d="M0.538512583,229.667924 L112.428983,229.667924 C210.273563,99.0012576 306.109856,-3.15914022e-14 396,0 C246.812309,0 115.350822,99.0012576 0.538512583,229.667924 Z" id="Path" fill="#F0F0F0"></path>
            </g>
            <g id="LEAPP">
                <use fill="black" fill-opacity="1" filter="url(#filter-3)" xlink:href="#path-2"></use>
                <use fill="#A30000" fill-rule="evenodd" xlink:href="#path-2"></use>
            </g>
        </g>
    </g>
</svg>